# xmcd
#
# Track frame offsets: 
#        150
#        14744
#        28083
#        39469
#        54350
#        66925
#        77410
#        89750
#        103438
#        116590
#        131515
#        139601
#        153937
#        167559
#        181286
#        195019
#        206519
#        220984
#        234683
#        248747
#
# Disc length: 3528 seconds
#
# Revision: 0
# Processed by: cddbd v1.5.1PL0 Copyright (c) Steve Scherf et al.
# Submitted via: ExactAudioCopy v0.95a4
#
DISCID=140dc614
DTITLE=Frank Sinatra - That's Life
DYEAR=2004
DGENRE=Blues
TTITLE0=A Lovely Way To Spend An Evening
TTITLE1=Begin The Beguine
TTITLE2=Blue Skies
TTITLE3=A Fellow Needs A Girl
TTITLE4=Ain'tcha Ever Coming Back
TTITLE5=Dancing In The Dark
TTITLE6=Almost Like Being In Love
TTITLE7=All Through The Day
TTITLE8=All Or Nothing At All
TTITLE9=Close To You
TTITLE10=For You
TTITLE11=Day by Day
TTITLE12=Don't Forget Tonight Tomorrow
TTITLE13=Dream
TTITLE14=From This Day Forward
TTITLE15=Five Minutes More
TTITLE16=Ghost Of Chance
TTITLE17=Full Moon And Empty Arm
TTITLE18=The Girl I Marry
TTITLE19=Ave Maria
EXTD=
EXTT0=
EXTT1=
EXTT2=
EXTT3=
EXTT4=
EXTT5=
EXTT6=
EXTT7=
EXTT8=
EXTT9=
EXTT10=
EXTT11=
EXTT12=
EXTT13=
EXTT14=
EXTT15=
EXTT16=
EXTT17=
EXTT18=
EXTT19=
PLAYORDER=
